<?xml version="1.0" encoding="iso-8859-1"?>
<!-- Uploaded to: SVG Repo, www.svgrepo.com, Generator: SVG Repo Mixer Tools -->
<svg height="800px" width="800px" version="1.1" id="Layer_1" xmlns="http://www.w3.org/2000/svg" xmlns:xlink="http://www.w3.org/1999/xlink" 
	 viewBox="0 0 511.999 511.999" xml:space="preserve">
<g>
	<polygon style="fill:#F0C19C;" points="273.551,157.815 273.552,157.811 273.552,157.811 	"/>
	<path style="fill:#F0C19C;" d="M244.044,21.554c-14.375,31.924-32.416,79.226-44.365,136.257l0,0l0,0l0,0l0,0l34.669,10.141
		l39.203-10.141l0,0c16.103-67.499,40.872-117.907,50.663-136.257C324.213,21.554,244.044,21.554,244.044,21.554z"/>
	<polygon style="fill:#F0C19C;" points="412.13,157.815 412.131,157.811 412.131,157.811 	"/>
	<path style="fill:#F0C19C;" d="M382.623,21.554c-14.375,31.924-32.416,79.226-44.365,136.257l0,0l0,0l0,0l0,0l34.669,10.141
		l39.203-10.141l0,0c16.103-67.499,40.872-117.907,50.663-136.257C462.793,21.554,382.623,21.554,382.623,21.554z"/>
</g>
<path style="fill:#DBDDF2;" d="M199.679,157.811c-7.71,36.796-12.889,77.629-12.889,121.032h71.982
	c0-43.726,6.145-84.834,14.781-121.032H199.679z"/>
<path style="opacity:0.1;enable-background:new    ;" d="M221.827,157.811c11.949-57.029,29.99-104.331,44.365-136.257h-22.148
	c-14.375,31.924-32.416,79.226-44.365,136.257l0,0c-7.71,36.796-12.889,77.629-12.889,121.032h22.148
	C208.938,235.439,214.118,194.605,221.827,157.811L221.827,157.811z"/>
<path style="fill:#E6E9FF;" d="M338.258,157.811c-7.71,36.796-12.889,77.629-12.889,121.032h71.982
	c0-43.726,6.145-84.834,14.781-121.032H338.258z"/>
<path style="opacity:0.1;enable-background:new    ;" d="M404.771,21.554h-22.148c-14.375,31.924-32.416,79.226-44.365,136.257
	c-7.71,36.796-12.889,77.629-12.889,121.032h22.148c0-43.404,5.18-84.237,12.889-121.032
	C372.355,100.78,390.396,53.478,404.771,21.554z"/>
<path style="fill:#FF6465;" d="M331.337,197.025c0.402,0.06,0.809,0.101,1.227,0.101h71.648c0.917-5.571,1.906-11.062,2.963-16.462
	c-0.502-0.094-1.018-0.15-1.547-0.15h-71.692C333.006,185.943,332.139,191.45,331.337,197.025z"/>
<path style="fill:#7DD2F0;" d="M328.113,223.556c0.287,0.03,0.577,0.047,0.873,0.047h71.539c0.631-5.578,1.349-11.086,2.14-16.525
	c-0.373-0.051-0.751-0.086-1.137-0.086h-71.542C329.292,212.452,328.662,217.972,328.113,223.556z"/>
<path style="fill:#FF6465;" d="M192.759,197.025c0.401,0.06,0.808,0.101,1.227,0.101h71.648c0.917-5.571,1.906-11.062,2.962-16.462
	c-0.502-0.094-1.018-0.15-1.547-0.15h-71.691C194.427,185.943,193.561,191.45,192.759,197.025z"/>
<path style="fill:#7DD2F0;" d="M189.535,223.556c0.287,0.03,0.577,0.047,0.872,0.047h71.539c0.631-5.578,1.349-11.086,2.14-16.525
	c-0.372-0.051-0.75-0.086-1.136-0.086h-71.542C190.714,212.452,190.084,217.972,189.535,223.556z"/>
<path style="fill:#565766;" d="M405.194,405.554H106.807c-37.283,0-72.335-14.518-98.698-40.882
	c-10.812-10.812-10.812-28.342,0-39.152c10.813-10.813,28.341-10.813,39.152,0c15.905,15.905,37.052,24.664,59.545,24.664h298.386
	c22.494,0,43.64-8.76,59.545-24.664c10.813-10.813,28.341-10.813,39.152,0c10.812,10.812,10.812,28.342,0,39.152
	C477.528,391.035,442.477,405.554,405.194,405.554z"/>
<g style="opacity:0.1;">
	<path d="M30.257,325.518c2.524-2.524,5.417-4.451,8.503-5.796c-10.131-4.419-22.362-2.492-30.651,5.796
		c-10.812,10.812-10.812,28.342,0,39.152c26.363,26.364,61.415,40.882,98.698,40.882h22.148c-37.283,0-72.335-14.518-98.698-40.882
		C19.445,353.86,19.445,336.33,30.257,325.518z"/>
</g>
<circle style="fill:#626375;" cx="138.46" cy="447.999" r="42.447"/>
<circle style="fill:#E6E9FF;" cx="138.46" cy="447.999" r="17.469"/>
<circle style="fill:#626375;" cx="373.541" cy="447.999" r="42.447"/>
<circle style="fill:#E6E9FF;" cx="373.541" cy="447.999" r="17.469"/>
<path style="fill:#565766;" d="M175.762,278.846c-3.824,0-7.576,0.308-11.237,0.886l-7.473,47.652h88.376l13.322-5.854v-42.684
	H175.762L175.762,278.846z"/>
<path style="fill:#DBDDF2;" d="M173.379,321.529c0.741-3.519,1.143-7.164,1.143-10.905c0-11.539-3.714-22.207-9.997-30.893
	c-24.173,3.817-44.311,19.747-54.015,41.378l-0.182,0.42c-3.888,8.816-6.063,18.559-6.063,28.814H258.75v-28.814H173.379z"/>
<path style="fill:#626375;" d="M314.363,278.843c-3.824,0-7.576,0.308-11.237,0.886l-7.473,47.652h88.376l13.322-5.854v-42.684
	L314.363,278.843L314.363,278.843z"/>
<path style="fill:#E6E9FF;" d="M311.979,321.527c0.741-3.519,1.143-7.164,1.143-10.905c0-11.539-3.714-22.207-9.997-30.893
	c-24.173,3.817-44.311,19.747-54.015,41.378l-0.182,0.42c-3.888,8.816-6.063,18.559-6.063,28.814H397.35v-28.814L311.979,321.527
	L311.979,321.527z"/>
<path style="fill:#626375;" d="M486.886,325.518c2.524-2.524,5.417-4.451,8.503-5.796c-10.131-4.419-22.362-2.492-30.651,5.796
	c-15.905,15.905-37.052,24.664-59.545,24.664h22.148C449.835,350.183,470.982,341.424,486.886,325.518z"/>
</svg>